
<svg xmlns="http://www.w3.org/2000/svg" version="1.1" xmlns:xlink="http://www.w3.org/1999/xlink" preserveAspectRatio="none" x="0px" y="0px" width="100px" height="100px" viewBox="0 0 100 100">
<defs>
<linearGradient id="Gradient_1" gradientUnits="userSpaceOnUse" x1="0.5" y1="0.5" x2="99.5" y2="99.5" spreadMethod="pad">
<stop  offset="0%" stop-color="#BDBDBD"/>

<stop  offset="100%" stop-color="#C8C8C8"/>
</linearGradient>

<g id="UnkUs_1_Layer4_0_FILL">
<path fill="url(#Gradient_1)" stroke="none" d="
M 100 0
L 0 0 0 100 100 100 100 0 Z"/>
</g>

<g id="UnkUs_1_Layer3_0_FILL">
<path fill="#DBDBDB" fill-opacity="0.09803921568627451" stroke="none" d="
M 100 88
L 100 86 86 100 88 100 100 88
M 100 84
L 100 82 82 100 84 100 100 84
M 100 80
L 100 78 78 100 80 100 100 80
M 100 76
L 100 74 74 100 76 100 100 76
M 100 72.1
L 100 70 70 100 72 100 100 72.1
M 100 68
L 100 66 66 100 68 100 100 68
M 100 64
L 100 62 62 100 64 100 100 64
M 100 60
L 100 58 58 100 60 100 100 60
M 100 56
L 100 54 54 100 56 100 100 56
M 100 52
L 100 50 50 100 52 100 100 52
M 100 48
L 100 46 46 100 48 100 100 48
M 100 44
L 100 42 42 100 44 100 100 44
M 100 40
L 100 38 38 100 40 100 100 40
M 100 36
L 100 34 34 100 36 100 100 36
M 100 32
L 100 30 30 100 32 100 100 32
M 100 28
L 100 26 26 100 28 100 100 28
M 100 24
L 100 22 22 100 24 100 100 24
M 100 20
L 100 18 18 100 20 100 100 20
M 100 16
L 100 14 14 100 16 100 100 16
M 100 12
L 100 10 10 100 12 100 100 12
M 100 8
L 100 6 6 100 8 100 100 8
M 100 4
L 100 2 2 100 4 100 100 4
M 100 0
L 98 0 0 98 0 100 100 0
M 96 0
L 94 0 0 94 0 96 96 0
M 92.15 0
L 90 0 0 90 0 92 92.15 0
M 88.25 0
L 86 0 0 86 0 88 88.25 0
M 84 0
L 82 0 0 82 0 84 84 0
M 80 0
L 78 0 0 78 0 80 80 0
M 76 0
L 74 0 0 74 0 76 76 0
M 72 0
L 70 0 0 70 0 72 72 0
M 68 0
L 66 0 0 66 0 68 68 0
M 56 0
L 54 0 0 54.2 0 56 56 0
M 60 0
L 58 0 0 58 0 60 60 0
M 64 0
L 62 0 0 62 0 64 64 0
M 52 0
L 50 0 0 50 0 52 52 0
M 48 0
L 46 0 0 46 0 48 48 0
M 44 0
L 42 0 0 42 0 44 44 0
M 40 0
L 38 0 0 38 0 40 40 0
M 36 0
L 34 0 0 34 0 36 36 0
M 32 0
L 30 0 0 30.1 0 32 32 0
M 28.25 0
L 26 0 0 26 0 28 28.25 0
M 24 0
L 22 0 0 21.75 0 24 24 0
M 20 0
L 18 0 0 18 0 20 20 0
M 16 0
L 14 0 0 14 0 16 16 0
M 0 10
L 0 12 12 0 10 0 0 10
M 8 0
L 6 0 0 6 0 8 8 0
M 2 0
L 0 2 0 4.15 4 0 2 0 Z"/>
</g>

<g id="UnkUs_1_Layer2_0_FILL">
<path fill="#DBDBDB" stroke="none" d="
M 69.55 17.85
Q 69.65 12.1 67.3 8.6 64.7 4.75 59.25 2.35 54.4 0.25 50 0.25 45.65 0.25 40.9 2.35 35.6 4.7 32.95 8.6 30.65 12.1 30.6 17.85 30.55 21.2 31 28.75 31 29.15 31.4 29.85 31.85 30.55 31.85 30.9 32.1 37 32.85 40.6 33.85 45.4 36.15 48.85 41.8 57.25 50 57.25 58.25 57.25 63.8 48.85 66.15 45.4 67.15 40.6 67.9 37 68.15 30.9 68.2 30.55 68.6 29.85 69 29.15 69 28.75 69.5 21.2 69.55 17.85 Z"/>
</g>

<g id="UnkUs_1_Layer1_0_FILL">
<path fill="#DBDBDB" stroke="none" d="
M 100 87.35
Q 98.90625 77.7662109375 93.85 74.9
L 50.05 55.85 6.25 74.9
Q 1.048046875 77.8482421875 0 87.95
L 0 100 100 100 100 87.35 Z"/>
</g>

<g id="UnkUs_1_Layer0_0_FILL">
<path fill="#DBDBDB" stroke="none" d="
M 38 49
L 38 65 62 65 62 49 38 49
M 36 32.25
Q 36 29.45 34.8 27.45 33.65 25.5 32 25.5 30.35 25.5 29.15 27.45 28 29.45 28 32.25 28 35.05 29.15 37 30.35 39 32 39 33.65 39 34.8 37 36 35.05 36 32.25
M 72 32.25
Q 72 29.45 70.8 27.45 69.65 25.5 68 25.5 66.35 25.5 65.15 27.45 64 29.45 64 32.25 64 35.05 65.15 37 66.35 39 68 39 69.65 39 70.8 37 72 35.05 72 32.25 Z"/>

<path fill="#BEBEBE" stroke="none" d="
M 55 83
L 55 89 80 89 80 83 55 83 Z"/>
</g>
</defs>

<g transform="matrix( 1, 0, 0, 1, 0,0) ">
<g transform="matrix( 1, 0, 0, 1, 0,0) ">
<use xlink:href="#UnkUs_1_Layer4_0_FILL"/>
</g>

<g transform="matrix( 1, 0, 0, 1, 0,0) ">
<use xlink:href="#UnkUs_1_Layer3_0_FILL"/>
</g>

<g transform="matrix( 1, 0, 0, 1, 0,0) ">
<use xlink:href="#UnkUs_1_Layer2_0_FILL"/>
</g>

<g transform="matrix( 1, 0, 0, 1, 0,0) ">
<use xlink:href="#UnkUs_1_Layer1_0_FILL"/>
</g>

<g transform="matrix( 1, 0, 0, 1, 0,0) ">
<use xlink:href="#UnkUs_1_Layer0_0_FILL"/>
</g>
</g>
</svg>
